<?xml version="1.0" encoding="UTF-8" standalone="no"?>
<!-- Created with Inkscape (http://www.inkscape.org/) -->

<svg
        width="274.23297mm"
        height="274.233mm"
        viewBox="0 0 274.23297 274.233"
        version="1.1"
        id="svg5"
        xml:space="preserve"
        xmlns:xlink="http://www.w3.org/1999/xlink"
        xmlns="http://www.w3.org/2000/svg"
        xmlns:svg="http://www.w3.org/2000/svg"><defs
     id="defs2"><linearGradient
       id="linearGradient978"><stop
         style="stop-color:#f89b29;stop-opacity:1;"
         offset="0"
         id="stop974" /><stop
        style="stop-color:#ff0f7b;stop-opacity:1;"
        offset="1"
        id="stop4752" /></linearGradient><linearGradient
        xlink:href="#linearGradient978"
        id="linearGradient980"
        x1="3.2058101"
        y1="11.999892"
        x2="20.7943"
        y2="11.999892"
        gradientUnits="userSpaceOnUse" /></defs><g
        id="页面-1"
        stroke="none"
        stroke-width="1"
        fill="none"
        fill-rule="evenodd"
        transform="matrix(11.426374,0,0,11.426375,1.3370311e-6,0)"
        style="opacity:1"><g
       id="Shape"
       transform="translate(-48,-48)"
       fill-rule="nonzero"><g
         id="hexagon_fill"
         transform="translate(48,48)"><path
           d="M 24,0 V 24 H 0 V 0 Z m -11.40651,23.257841 -0.01155,0.0017 -0.07106,0.03553 -0.019,0.0037 v 0 l -0.01516,-0.0037 -0.07106,-0.03553 c -0.0098,-0.0031 -0.01861,-4.89e-4 -0.02351,0.0054 l -0.0041,0.01092 -0.01709,0.427279 0.005,0.02039 0.01101,0.01222 0.103573,0.07398 0.01487,0.0039 v 0 l 0.01177,-0.0039 0.103575,-0.07398 0.0126,-0.01604 v 0 l 0.0034,-0.01656 -0.01709,-0.427279 c -0.002,-0.01013 -0.0085,-0.01653 -0.01607,-0.01799 z m 0.264901,-0.112555 -0.01384,0.002 -0.184705,0.09235 -0.01,0.01024 v 0 l -0.0027,0.01121 0.0179,0.429528 0.0048,0.01278 v 0 l 0.0085,0.0071 0.200954,0.09275 c 0.01209,0.0037 0.02289,-2.52e-4 0.02849,-0.008 l 0.004,-0.01406 -0.03415,-0.614631 c -0.0024,-0.01194 -0.01027,-0.01953 -0.01929,-0.02125 z m -0.715344,0.002 c -0.0098,-0.0049 -0.02087,-0.002 -0.02741,0.0053 l -0.0057,0.01394 -0.03415,0.614631 c -6.39e-4,0.0115 0.007,0.0207 0.01688,0.0234 l 0.01561,-0.0013 0.200955,-0.09275 0.0094,-0.0081 v 0 l 0.0039,-0.0118 0.0179,-0.429528 -0.0032,-0.01259 v 0 l -0.0095,-0.0089 z"
           id="MingCute"
           fill-rule="nonzero" /><path
        d="m 10.75,2.56687 c 0.7735,-0.44658 1.7265,-0.44658 2.5,0 l 6.2943,3.63397 c 0.7735,0.44659 1.25,1.2719 1.25,2.16507 v 7.26799 c 0,0.8931 -0.4765,1.7184 -1.25,2.165 l -6.2943,3.634 c -0.7735,0.4466 -1.7265,0.4466 -2.5,0 l -6.29419,-3.634 c -0.7735,-0.4466 -1.25,-1.2719 -1.25,-2.165 V 8.36591 c 0,-0.89317 0.4765,-1.71848 1.25,-2.16507 z"
        id="路径"
        fill="#09244b"
        style="fill:url(#linearGradient980);fill-opacity:1" /></g></g></g><path
        d="m 86.84154,154.21797 15.97326,-21.90612 c 9.9686,10.23713 10.43094,26.40545 1.0664,37.19215 -9.36426,10.78637 -25.429521,12.59105 -36.965354,4.16114 -11.535833,-8.42991 -14.696643,-24.28421 -7.264608,-36.48257 7.432258,-12.19873 22.97698,-16.66976 35.758543,-10.282 l -15.978853,21.91368 c -3.611565,4.94182 3.809545,10.3532 7.410598,5.40372 z m 25.67944,-43.97459 -9.3731,-16.068143 C 102.32617,92.76626 100.81783,91.899862 99.186749,91.89994 H 83.136244 c -6.114476,0 -6.114476,9.17172 0,9.17172 H 96.5529 l 7.86249,13.47852 -9.005595,12.35039 c 2.752382,1.37893 5.255145,3.20785 7.405015,5.41128 l 6.64536,-9.1135 17.8665,30.62833 c 3.07995,5.28455 11.00221,0.66342 7.92226,-4.62113 L 117.8711,119.4151 h 18.2866 c 1.85481,-11.63991 -3.28277,-9.17172 -23.63672,-9.17172 z"
        id="path148"
        style="fill:#ffffff;stroke-width:0.573232" /><path
        d="M 227.93385,173.97415 136.99418,83.040951 c -0.4417,-0.44169 -1.04902,-0.7145 -1.72455,-0.7145 -1.34456,0 -2.4358,1.091237 -2.4358,2.435797 0,0 0,0 0,0.0032 v 0 90.936442 c 0,1.34456 1.09124,2.4358 2.4358,2.4358 h 90.93643 c 1.3478,0 2.43904,-1.09124 2.43904,-2.43904 0,-0.67228 -0.27281,-1.28285 -0.71451,-1.72129 v 0 z M 137.70867,173.2629 V 90.643887 l 13.63072,13.630723 -4.82287,4.97229 c -0.43845,0.44169 -0.70801,1.04901 -0.70801,1.71805 0,1.34456 1.09124,2.43579 2.43581,2.43579 0.695,0 1.32181,-0.29229 1.76674,-0.75997 v 0 l 4.77417,-4.92032 12.76683,12.76684 -4.77417,4.77416 c -0.45468,0.44169 -0.73723,1.06201 -0.73723,1.74728 0,1.34456 1.09124,2.4358 2.43579,2.4358 0.68527,0 1.30234,-0.28255 1.74404,-0.73723 l 4.77416,-4.77417 12.79281,12.79281 -4.77416,4.77092 c -0.43845,0.44169 -0.70801,1.04901 -0.70801,1.71804 0,1.34781 1.09123,2.43905 2.43904,2.43905 0.66904,0 1.27636,-0.26957 1.7148,-0.70801 l 4.77742,-4.77416 12.78955,12.78956 -4.77416,4.77416 c -0.44169,0.44169 -0.7145,1.05227 -0.7145,1.72455 0,1.34781 1.09124,2.43904 2.43905,2.43904 0.67228,0 1.28285,-0.27281 1.72454,-0.7145 l 4.77416,-4.77416 16.84923,16.84922 z m 12.27641,-41.50599 c -0.44169,-0.44169 -1.04901,-0.7145 -1.72453,-0.7145 -1.34456,0 -2.4358,1.09124 -2.4358,2.4358 0,0 0,0 0,0.003 v 0 29.22957 c 0,1.34456 1.09124,2.4358 2.4358,2.4358 h 29.22955 c 0,0 0,0 0,0 1.34457,0 2.43581,-1.09124 2.43581,-2.4358 0,-0.67227 -0.27281,-1.28285 -0.71451,-1.72454 v 0 z m 0.7145,28.51507 v -20.91214 l 20.91213,20.91214 z"
        id="path338"
        style="fill:#ffffff;stroke-width:3.24773" /></svg>
